# xmcd CD database file
#
# Track frame offsets:
#	150
#	22660
#	43482
#	64475
#	86256
#	117243
#	134591
#	157079
#	177900
#	198894
#	220674
#	251661
#
# Disc length: 3580 seconds
#
# Revision: 0
# Processed by: cddbd v1.5.1PL0 Copyright (c) Steve Scherf et al.
# Submitted via: CDex 1.51
#
DISCID=a90dfa0c
DTITLE=Metalucifer - Heavy Metal Hunter
DYEAR=1900
DGENRE=Heavy Metal
TTITLE0=Heavy Metal Hunter ~part 1~
TTITLE1=Monster of the Earth
TTITLE2=Fallen Angel
TTITLE3=Wolf Man (Japanese version)
TTITLE4=Bloody Countess (Japanese version)
TTITLE5=Headbanging (Japanese version)
TTITLE6=Heavy Metal Hunter ~part 1~
TTITLE7=Monster of the Earth
TTITLE8=Fallen Angel
TTITLE9=Wolf Man (Japanese version)
TTITLE10=Bloody Countess (Japanese version)
TTITLE11=Headbanging (Japanese version)
EXTD=
EXTT0=
EXTT1=
EXTT2=
EXTT3=
EXTT4=
EXTT5=
EXTT6=
EXTT7=
EXTT8=
EXTT9=
EXTT10=
EXTT11=
PLAYORDER=
